<?xml version="1.0" encoding="UTF-8" standalone="no"?>
<!-- Created with Inkscape (http://www.inkscape.org/) -->

<svg
   width="97.824669mm"
   height="128.57182mm"
   viewBox="0 0 97.824669 128.57182"
   version="1.1"
   id="svg1"
   inkscape:version="1.4.2 (f4327f4, 2025-05-13)"
   sodipodi:docname="music.svg"
   xmlns:inkscape="http://www.inkscape.org/namespaces/inkscape"
   xmlns:sodipodi="http://sodipodi.sourceforge.net/DTD/sodipodi-0.dtd"
   xmlns="http://www.w3.org/2000/svg"
   xmlns:svg="http://www.w3.org/2000/svg">
  <sodipodi:namedview
     id="namedview1"
     pagecolor="#000000"
     bordercolor="#000000"
     borderopacity="0.25"
     inkscape:showpageshadow="2"
     inkscape:pageopacity="0.0"
     inkscape:pagecheckerboard="0"
     inkscape:deskcolor="#d1d1d1"
     inkscape:document-units="mm"
     inkscape:clip-to-page="true"
     inkscape:zoom="0.70377385"
     inkscape:cx="161.2734"
     inkscape:cy="261.44762"
     inkscape:window-width="1920"
     inkscape:window-height="992"
     inkscape:window-x="-8"
     inkscape:window-y="-8"
     inkscape:window-maximized="1"
     inkscape:current-layer="layer1" />
  <defs
     id="defs1" />
  <g
     inkscape:label="Ebene 1"
     inkscape:groupmode="layer"
     id="layer1"
     transform="translate(-62.482146,-79.426766)">
    <g
       id="g7"
       inkscape:label="noten"
       style="display:inline;fill:#000000;fill-opacity:1;stroke:none"
       transform="matrix(0.26458333,0,0,0.26458333,-12.266697,10.453551)">
      <path
         style="display:inline;fill:#ffffff;fill-opacity:1;stroke:none;stroke-width:1;stroke-dasharray:none;stroke-opacity:0.47807;paint-order:fill markers stroke"
         d="m 565.79241,297.80253 -47.20497,111.86459 c -7.63429,14.77038 -16.79584,23.63742 -28.78491,28.77339 -26.23971,7.85984 -43.03254,-0.51233 -53.7924,-14.58228 -11.16846,-15.78185 -7.4895,-29.13963 2.43038,-41.47848 20.40769,-17.17086 41.9067,-16.82056 65.78228,10.04557 l 44.56368,-97.98248 c 6.3395,-11.5171 12.67899,-29.83666 19.01849,-33.22506 6.92112,-2.09754 17.75088,1.94705 33.22506,13.29002 l 8.47812,8.9364 c 8.57876,10.50335 10.3887,22.81171 9.85296,35.74559 -2.88985,18.3545 -12.75537,30.81373 -18.21651,38.38068 -0.95554,-16.74746 3.44788,-41.24547 -35.35218,-59.76794 z"
         id="path2"
         sodipodi:nodetypes="ccccccccccccc" />
      <path
         style="display:inline;fill:#ffffff;fill-opacity:1;stroke:none;stroke-width:1;stroke-dasharray:none;stroke-opacity:0.47807;paint-order:fill markers stroke"
         d="m 392.74937,359.53418 c 1.39231,-8.4664 11.68036,-5.14753 12.96202,0.32405 l 0.48607,1.21519 c 2.55346,9.77335 0.9449,13.10525 8.42533,27.46328 l 1.2962,3.119 c 0.55838,1.47173 -0.60376,2.65991 -2.22785,3.36202 -1.37548,0.53319 -3.33032,0.22425 -4.57722,-0.72911 -6.11045,-5.3932 -15.62015,-13.48268 -16.36455,-34.75443 z"
         id="path3"
         sodipodi:nodetypes="cccccccc" />
      <path
         style="fill:#ffffff;fill-opacity:1;stroke:none;stroke-width:1;stroke-dasharray:none;stroke-opacity:1;paint-order:fill markers stroke"
         d="M 388.86076,418.67342 C 384.89094,402.43325 368.14284,375.75388 343.16962,371.2 c -16.27809,-3.7016 -50.28688,11.0751 -55.25063,19.76709 -0.91643,3.61857 1.01868,7.23713 2.5924,10.8557 l 38.4,76.31392 24.3038,44.55696 c -21.25669,-5.14671 -57.53686,16.21773 -52.82025,41.80253 4.71661,25.5848 31.35779,31.20871 48.76962,27.38228 36.33091,-9.09597 36.45315,-42.65817 33.45822,-49.01266 -2.17271,-5.64808 -3.54157,-8.54252 -5.42784,-12.55696 L 315.96903,415.49188 c 34.38073,-19.67816 61.49789,-8.2123 72.89173,3.18154 z"
         id="path5"
         sodipodi:nodetypes="cccccczccccc" />
      <path
         style="fill:#ffffff;fill-opacity:1;stroke:none;stroke-opacity:0.47807;paint-order:fill markers stroke"
         d="m 600.8009,386.78564 v 0 c 18.50173,-4.97156 32.79305,-37.20134 36.81028,-44.22372 4.01723,-7.02238 17.58233,-0.73321 14.05606,11.26273 -3.38113,9.78663 -10.11933,17.94553 -19.52545,24.50448 -10.44696,7.39218 -21.78507,10.53758 -31.34089,8.45651 z"
         id="path1"
         sodipodi:nodetypes="cccccc" />
      <path
         style="fill:#ffffff;fill-opacity:1;stroke:none;stroke-opacity:0.47807;paint-order:fill markers stroke"
         d="m 441.32057,507.77071 c 3.96938,-11.0857 16.04763,-22.15319 35.28732,-25.89264 21.30193,-5.22885 111.43514,-25.25482 115.94403,-25.20522 30.9585,0.34054 37.92697,25.30729 37.65971,31.91734 2.03898,4.64516 -10.613,72.81076 -17.14606,102.39946 -5.70022,31.21778 -13.42868,65.09676 -16.6183,84.96865 -3.62558,22.58804 -21.85678,37.16225 -40.09922,45.14027 -17.73265,7.75507 -46.74741,6.19463 -62.55478,-5.49932 -12.66374,-10.64121 -16.02202,-24.51004 -16.49797,-31.85024 -0.82806,-16.87447 11.21377,-29.75405 17.41452,-35.51645 16.3166,-15.85299 35.21201,-14.95035 50.47756,-14.38251 13.16949,0.48987 24.04781,6.98281 35.22021,14.84078 l 21.76815,-117.31886 c 1.72618,-9.30321 -8.98014,-19.8185 -24.28868,-18.10194 L 471.3377,534.35077 c -17.49059,2.32228 -16.79654,25.04541 -21.08073,42.84888 l -22.91384,126.94268 c -3.64745,20.20686 -33.69887,39.49703 -50.51926,41.61065 -29.71964,3.73452 -43.65216,-5.04689 -56.25924,-15.94715 -14.35582,-14.36793 -13.03248,-42.95177 -2.74966,-55.18304 15.52636,-16.2801 29.47482,-21.37906 45.82768,-22.26574 17.47174,-0.73122 33.90954,2.8324 48.57735,13.7483 0,0 25.13119,-147.24894 29.10057,-158.33464 z"
         id="path4"
         sodipodi:nodetypes="zcscccscccscscccssccccz" />
      <path
         style="fill:#ffffff;fill-opacity:1;stroke:none;stroke-opacity:0.47807;paint-order:fill markers stroke"
         d="m 287.28228,487.32011 c 7.79753,-0.75571 12.73804,0.5061 16.95624,1.8331 7.55404,2.91468 14.80481,6.57114 21.02345,15.46685 0.72864,1.04231 0.53108,2.39274 -0.91655,1.8331 -12.49505,-4.83046 -28.40376,-2.80008 -36.83401,-4.52548 -2.00356,-0.41006 -5.22026,-5.03139 -4.98375,-8.07713 0.3076,-3.96125 1.92855,-5.71894 4.75462,-6.53044 z"
         id="path6"
         sodipodi:nodetypes="ccssssc" />
      <path
         style="fill:#ffffff;fill-opacity:1;stroke:none;stroke-opacity:0.47807;paint-order:fill markers stroke"
         d="m 611.34127,398.12798 c 10.62109,0.56617 19.96717,-3.01782 29.32972,-7.21786 3.79696,0.0582 8.04988,-0.47993 8.01984,4.58277 0.19507,7.12908 -5.42493,7.94321 -10.4258,10.08209 -19.62766,4.01664 -29.19585,-6.14659 -26.92376,-7.447 z"
         id="path7"
         sodipodi:nodetypes="ccccc" />
    </g>
  </g>
</svg>
